<svg width="32" height="32" viewBox="0 0 32 32" fill="none" xmlns="http://www.w3.org/2000/svg">
<path d="M6.66675 14.6666H25.3334V17.3333H6.66675V14.6666ZM16.0027 5.33331C15.2955 5.33261 14.6169 5.61288 14.1163 6.11248C13.6158 6.61207 13.3341 7.29007 13.3334 7.99731C13.3327 8.70456 13.613 9.38312 14.1126 9.88371C14.6122 10.3843 15.2902 10.6659 15.9974 10.6666C16.7047 10.6674 17.3832 10.3871 17.8838 9.88749C18.3844 9.38789 18.666 8.70989 18.6667 8.00265C18.6675 7.2954 18.3872 6.61685 17.8876 6.11625C17.388 5.61565 16.71 5.33402 16.0027 5.33331ZM16.0027 21.3333C15.2955 21.3326 14.6169 21.6129 14.1163 22.1125C13.6158 22.6121 13.3341 23.2901 13.3334 23.9973C13.3327 24.7046 13.613 25.3831 14.1126 25.8837C14.6122 26.3843 15.2902 26.6659 15.9974 26.6666C16.7047 26.6674 17.3832 26.3871 17.8838 25.8875C18.3844 25.3879 18.666 24.7099 18.6667 24.0026C18.6675 23.2954 18.3872 22.6168 17.8876 22.1162C17.388 21.6157 16.71 21.334 16.0027 21.3333Z" fill="white"/>
</svg>
