<svg width="32" height="32" viewBox="0 0 32 32" fill="none" xmlns="http://www.w3.org/2000/svg">
<path d="M24.668 4.66669L4.66797 24.668L7.3293 27.3294L27.3293 7.32935L24.668 4.66669ZM9.33597 6.66669C8.98578 6.66634 8.63895 6.73497 8.31528 6.86865C7.99161 7.00234 7.69744 7.19847 7.44957 7.44585C7.2017 7.69323 7.00498 7.987 6.87064 8.3104C6.73631 8.6338 6.66699 8.9805 6.66664 9.33069C6.66629 9.68088 6.73491 10.0277 6.8686 10.3514C7.00229 10.675 7.19842 10.9692 7.4458 11.2171C7.69317 11.465 7.98695 11.6617 8.31035 11.796C8.63375 11.9303 8.98044 11.9997 9.33064 12C10.0379 12.0007 10.7164 11.7205 11.217 11.2209C11.7176 10.7213 11.9993 10.0433 12 9.33602C12.0007 8.62878 11.7204 7.95022 11.2208 7.44962C10.7212 6.94902 10.0432 6.66739 9.33597 6.66669ZM22.6693 20C21.9621 19.9993 21.2835 20.2796 20.7829 20.7792C20.2823 21.2788 20.0007 21.9568 20 22.664C19.9993 23.3713 20.2795 24.0498 20.7791 24.5504C21.2787 25.051 21.9567 25.3326 22.664 25.3334C23.0142 25.3337 23.361 25.2651 23.6847 25.1314C24.0083 24.9977 24.3025 24.8016 24.5504 24.5542C24.7982 24.3068 24.995 24.013 25.1293 23.6896C25.2636 23.3662 25.333 23.0195 25.3333 22.6694C25.3337 22.3192 25.265 21.9723 25.1313 21.6487C24.9976 21.325 24.8015 21.0308 24.5541 20.783C24.3068 20.5351 24.013 20.3384 23.6896 20.204C23.3662 20.0697 23.0195 20.0004 22.6693 20Z" fill="#001427"/>
</svg>
