<svg width="126" height="19" viewBox="0 0 126 19" fill="none" xmlns="http://www.w3.org/2000/svg">
<path d="M0 18.8489V0.569153H14.8074V2.85413H2.27807V18.8489H0Z" fill="#00ACDF"/>
<path d="M4.04993 18.849V4.63135H14.8075V6.91632H6.328V18.849H4.04993Z" fill="#00ACDF"/>
<path d="M8.09985 18.849V8.69354H14.8075V10.9785H10.3779V18.849H8.09985Z" fill="#00ACDF"/>
<path d="M24.8917 18.7487H21.7151V3.38857H24.8917V5.61388C25.7776 4.08041 27.3166 3.13214 29.4896 3.13214V6.4225H28.6822C26.3408 6.4225 24.8917 7.39869 24.8917 10.6611V18.7487Z" fill="#001427"/>
<path d="M39.0206 19C34.6176 19 31.3562 15.8772 31.3562 11.0521C31.3562 6.22701 34.4784 3.13214 39.0206 3.13214C43.3958 3.13214 46.4876 6.17877 46.4876 10.6891C46.4923 11.2108 46.4555 11.7321 46.3775 12.2479H34.6455C34.8682 14.7868 36.6793 16.319 39.0206 16.319C40.9709 16.319 42.0581 15.3707 42.6428 14.1724H46.0675C45.2069 16.8521 42.7832 19 39.0206 19ZM34.6771 9.68621H43.1768C43.1212 7.31491 41.2531 5.80937 38.8852 5.80937C36.735 5.80937 35.0074 7.25906 34.6771 9.68621Z" fill="#001427"/>
<path d="M55.7963 3.13214C58.3882 3.13214 60.1727 4.35968 61.1194 5.61388V3.38349H64.3239V18.7436H61.1194V16.4586C60.1449 17.7687 58.3047 18.9975 55.7406 18.9975C51.7565 18.9975 48.5508 15.735 48.5508 11.0001C48.5508 6.26509 51.7629 3.13214 55.7963 3.13214ZM56.4658 5.89315C54.0966 5.89315 51.8122 7.67797 51.8122 10.9963C51.8122 14.3145 54.0966 16.239 56.4658 16.239C58.8628 16.239 61.1194 14.3704 61.1194 11.0521C61.1194 7.76175 58.8628 5.89315 56.4658 5.89315Z" fill="#001427"/>
<path d="M77.6289 10.1597C77.6289 7.34283 76.0963 5.89314 73.784 5.89314C71.4427 5.89314 69.91 7.34283 69.91 10.1597V18.7487H66.7334V3.38855H69.91V5.1391C70.9415 3.88363 72.6412 3.13086 74.4801 3.13086C78.0757 3.13086 80.7777 5.38917 80.7777 9.68493V18.7474H77.6289V10.1597Z" fill="#001427"/>
<path d="M104.939 10.1597C104.939 7.34283 103.407 5.89314 101.093 5.89314C98.7518 5.89314 97.2191 7.34283 97.2191 10.1597V18.7487H94.0703V10.1597C94.0703 7.34283 92.5377 5.89314 90.2242 5.89314C87.8841 5.89314 86.3515 7.34283 86.3515 10.1597V18.7487H83.1736V3.38855H86.3515V5.1391C87.3817 3.88363 89.0535 3.13086 90.8937 3.13086C93.3173 3.13086 95.3524 4.16291 96.4117 6.17749C97.3584 4.30889 99.5326 3.13721 101.761 3.13721C105.357 3.13721 108.089 5.39552 108.089 9.69127V18.7537H104.939V10.1597Z" fill="#001427"/>
<path d="M118.029 19C113.654 19 110.338 15.8772 110.338 11.0521C110.338 6.22701 113.793 3.13214 118.168 3.13214C122.544 3.13214 126 6.22828 126 11.0521C126 15.8759 122.432 19 118.029 19ZM118.029 16.239C120.398 16.239 122.74 14.538 122.74 11.0521C122.74 7.56626 120.485 5.89315 118.113 5.89315C115.717 5.89315 113.571 7.56626 113.571 11.0521C113.571 14.538 115.633 16.239 118.029 16.239Z" fill="#001427"/>
</svg>
